<svg width="23" height="20" viewBox="0 0 23 20" fill="none" xmlns="http://www.w3.org/2000/svg">
<path d="M15.3776 0H7.3755C3.69321 0 0.707092 2.79875 0.707092 6.25V13.75C0.707092 17.2012 3.69321 20 7.3755 20H15.3776C19.0599 20 22.046 17.2012 22.046 13.75V6.25C22.046 2.79875 19.0599 0 15.3776 0ZM20.0455 13.75C20.0455 16.1625 17.9516 18.125 15.3776 18.125H7.3755C4.8015 18.125 2.70762 16.1625 2.70762 13.75V6.25C2.70762 3.8375 4.8015 1.875 7.3755 1.875H15.3776C17.9516 1.875 20.0455 3.8375 20.0455 6.25V13.75Z" fill="white"/>
</svg>
